<?xml version="1.0" standalone="no"?>
<!DOCTYPE svg PUBLIC "-//W3C//DTD SVG 20010904//EN"
 "http://www.w3.org/TR/2001/REC-SVG-20010904/DTD/svg10.dtd">
<svg version="1.0" xmlns="http://www.w3.org/2000/svg"
 width="2000.000000pt" height="2000.000000pt" viewBox="0 0 2000.000000 2000.000000"
 preserveAspectRatio="xMidYMid meet">
<metadata>
Created by potrace 1.11, written by Peter Selinger 2001-2013
</metadata>
<g transform="translate(0.000000,2000.000000) scale(0.100000,-0.100000)"
fill="#000000" stroke="none">
<path d="M9579 18436 c-2 -2 -76 -7 -164 -11 -194 -8 -237 -10 -340 -19 -44
-4 -109 -9 -145 -12 -36 -3 -101 -9 -145 -14 -44 -5 -107 -12 -140 -15 -33 -4
-71 -8 -85 -10 -14 -2 -63 -9 -110 -15 -92 -12 -114 -15 -175 -25 -22 -3 -56
-8 -75 -11 -78 -11 -93 -14 -109 -18 -9 -3 -36 -8 -61 -11 -25 -4 -121 -22
-215 -41 -93 -20 -181 -37 -195 -40 -222 -43 -920 -242 -1047 -300 -17 -8 -36
-14 -42 -14 -6 0 -25 -6 -43 -14 -18 -8 -89 -36 -158 -62 -356 -135 -804 -349
-1147 -550 -234 -136 -526 -328 -732 -481 -106 -79 -340 -263 -367 -288 -6 -5
-37 -32 -70 -60 -183 -156 -513 -470 -644 -612 -24 -26 -69 -75 -99 -108 -31
-33 -83 -91 -116 -129 -33 -38 -65 -74 -70 -80 -6 -6 -55 -65 -109 -131 -53
-66 -105 -129 -114 -140 -46 -55 -239 -315 -316 -425 -47 -69 -93 -134 -101
-145 -41 -59 -175 -267 -246 -385 -45 -74 -92 -151 -104 -170 -13 -19 -34 -55
-48 -80 -51 -94 -80 -146 -97 -175 -69 -117 -304 -584 -383 -760 -25 -55 -56
-125 -70 -155 -14 -30 -60 -138 -102 -240 -42 -102 -80 -194 -85 -205 -22 -49
-126 -325 -199 -530 -144 -403 -320 -990 -427 -1425 -2 -8 -11 -44 -19 -80
-20 -78 -14 -55 -65 -275 -23 -99 -44 -191 -47 -205 -2 -14 -17 -86 -33 -160
-16 -74 -31 -153 -34 -175 -4 -22 -8 -47 -11 -55 -2 -8 -7 -28 -10 -45 -29
-160 -35 -193 -39 -211 -2 -12 -7 -39 -10 -60 -4 -22 -14 -79 -22 -129 -9 -49
-17 -101 -19 -115 -2 -14 -6 -38 -9 -55 -6 -33 -9 -50 -31 -205 -9 -58 -17
-116 -20 -130 -5 -31 -34 -242 -40 -290 -5 -38 -13 -102 -20 -167 -9 -81 -16
-138 -20 -168 -2 -16 -7 -57 -10 -90 -3 -33 -8 -78 -11 -100 -2 -22 -6 -62 -9
-90 -2 -27 -7 -72 -10 -100 -6 -60 -15 -171 -20 -240 -2 -27 -6 -74 -10 -104
-3 -29 -8 -90 -10 -135 -3 -44 -7 -110 -10 -146 -9 -137 -15 -229 -21 -345 -3
-66 -7 -154 -9 -195 -8 -149 -17 -521 -19 -805 -3 -335 6 -434 55 -630 44
-171 143 -382 269 -570 139 -206 279 -365 490 -555 52 -47 97 -87 100 -90 15
-15 118 -97 210 -166 137 -103 358 -249 545 -360 181 -106 615 -326 815 -413
80 -35 168 -73 195 -85 28 -13 84 -35 125 -51 41 -15 80 -31 85 -35 6 -3 30
-13 55 -20 25 -7 50 -17 55 -21 28 -20 563 -202 895 -304 256 -78 839 -230
1095 -285 84 -18 116 -25 155 -35 10 -2 86 -17 110 -21 14 -3 33 -7 42 -10 9
-3 25 -6 35 -8 31 -6 335 -65 378 -73 22 -4 42 -8 45 -8 5 -1 79 -15 110 -20
8 -1 35 -6 60 -10 25 -4 54 -9 65 -11 26 -5 128 -22 180 -29 22 -3 65 -10 95
-15 30 -5 73 -12 95 -15 23 -3 50 -7 61 -9 11 -2 47 -7 79 -11 33 -4 67 -9 77
-11 9 -1 38 -5 65 -9 26 -4 59 -9 73 -11 14 -2 50 -6 80 -9 30 -4 80 -10 110
-15 30 -5 87 -11 125 -15 39 -3 77 -8 85 -10 8 -2 44 -6 80 -10 106 -10 163
-15 195 -20 17 -2 64 -7 105 -10 41 -3 91 -8 110 -11 19 -2 66 -7 105 -9 38
-3 90 -7 115 -10 25 -3 77 -7 115 -10 39 -3 95 -7 125 -10 30 -3 93 -7 140
-10 47 -3 123 -7 170 -10 325 -21 527 -29 950 -40 583 -15 1440 -2 1935 30 39
2 124 7 190 10 66 4 136 8 155 10 19 2 80 7 135 10 55 4 120 8 145 11 25 2 74
6 110 9 36 3 83 7 105 10 22 2 72 7 110 10 39 3 89 8 112 11 23 2 68 7 100 9
32 3 74 7 93 10 19 2 58 7 85 10 118 12 312 35 335 39 14 3 52 7 85 11 33 3
87 10 120 15 33 5 83 12 110 15 28 3 61 8 75 10 45 8 185 30 255 40 23 3 52 7
65 10 13 3 40 7 60 10 20 3 45 7 57 9 12 3 43 8 70 12 26 3 57 8 68 10 11 2
70 13 130 24 61 11 121 22 135 25 14 3 41 8 60 11 19 3 37 7 40 9 3 2 26 6 50
10 25 4 108 20 185 37 77 16 151 32 165 34 175 33 777 183 1040 259 367 106
771 237 1015 330 148 56 378 147 394 155 9 4 75 33 146 64 178 76 185 79 395
182 1075 528 1777 1157 2039 1827 38 99 78 231 87 292 3 17 6 39 9 50 12 57
19 203 18 395 0 198 -11 674 -18 815 -1 33 -6 130 -9 215 -4 85 -9 180 -11
210 -2 30 -7 98 -10 150 -3 52 -7 120 -10 150 -5 55 -10 121 -20 260 -4 41 -8
86 -10 100 -3 14 -7 62 -10 108 -4 45 -8 90 -10 100 -1 9 -6 53 -10 97 -3 44
-8 91 -10 105 -4 27 -11 82 -20 175 -5 54 -16 138 -31 250 -2 22 -7 56 -9 75
-2 19 -9 69 -15 110 -14 95 -19 130 -26 188 -3 25 -7 48 -9 52 -2 3 -6 37 -10
75 -4 39 -9 73 -11 76 -2 4 -6 24 -10 45 -22 150 -36 232 -70 419 -14 77 -28
151 -30 165 -22 121 -117 571 -153 722 -17 69 -32 137 -35 150 -9 43 -14 63
-35 143 -12 44 -24 91 -27 105 -3 14 -10 41 -15 60 -6 19 -14 51 -19 70 -66
284 -291 991 -455 1430 -92 245 -277 698 -313 766 -6 11 -20 42 -33 69 -128
288 -367 754 -512 998 -26 43 -47 81 -47 83 0 2 -15 28 -34 57 -18 28 -69 108
-111 177 -75 120 -227 348 -316 475 -44 63 -270 366 -279 375 -3 3 -32 39 -65
80 -33 41 -70 86 -81 100 -23 27 -213 247 -253 294 -76 87 -554 558 -666 655
-457 399 -935 736 -1440 1014 -129 71 -592 297 -609 297 -9 0 -16 5 -16 10 0
6 -8 10 -18 10 -10 0 -22 4 -27 9 -18 16 -438 179 -635 246 -370 126 -855 255
-1180 315 -76 14 -101 19 -132 25 -15 4 -39 8 -55 10 -15 2 -95 15 -178 29
-82 13 -193 30 -245 36 -52 6 -106 13 -120 16 -14 2 -50 6 -80 9 -30 3 -73 7
-95 10 -73 9 -119 14 -200 20 -44 4 -98 8 -120 10 -22 2 -87 7 -145 10 -58 4
-130 9 -160 11 -66 6 -1046 15 -1051 10z"/>
</g>
</svg>
